<svg width="375" height="812" viewBox="0 0 375 812" fill="none" xmlns="http://www.w3.org/2000/svg">
<g clip-path="url(#clip0)">
<rect width="375" height="812" fill="url(#paint0_linear)"/>
<path d="M320.474 434C220.474 770 746.474 978.43 292.474 896C-423.526 766 -21.5263 553.761 -21.5263 382C-21.5263 210.239 227.713 75 399.474 75C571.234 75 369.469 269.376 320.474 434Z" fill="url(#paint1_linear)"/>
<path d="M387.241 654.5C153.411 720.837 207.411 239 -128.589 377C-631.487 583.547 -721.467 -156.209 -537.115 -329.404C-352.763 -502.598 203.426 -210.055 387.587 -14.0307C571.748 181.994 801.411 537 387.241 654.5Z" fill="#F9C70C"/>
<path d="M392.652 644.5C158.822 710.837 212.822 229 -123.178 367C-626.076 573.547 -716.056 -166.209 -531.704 -339.404C-347.352 -512.598 208.837 -220.055 392.997 -24.0307C577.158 171.994 806.822 527 392.652 644.5Z" fill="#F9C70C"/>
<path d="M392.379 643.538C363.306 651.786 338.772 651.498 317.425 645.005C296.07 638.51 277.824 625.781 261.37 609.02C235.389 582.554 213.997 546.181 191.937 508.672C186.008 498.592 180.032 488.43 173.905 478.357C145.038 430.894 112.863 385.458 66.7626 360.589C20.5875 335.679 -39.3644 331.495 -123.558 366.075C-249.065 417.623 -348.652 410.076 -424.604 367.246C-500.595 324.394 -553.106 246.121 -584.214 155.876C-615.32 65.6383 -624.988 -36.4654 -615.371 -126.81C-605.75 -217.194 -576.851 -295.616 -531.019 -338.675C-485.228 -381.695 -416.241 -395.886 -335.419 -389.762C-254.618 -383.639 -162.164 -357.222 -69.6615 -319.249C115.357 -243.298 300.312 -121.227 392.269 -23.346C484.328 74.6432 587.62 212.235 616.223 339.9C630.516 403.697 626.138 464.92 592.489 517.499C558.832 570.089 495.783 614.202 392.379 643.538Z" stroke="white" stroke-opacity="0.6" stroke-width="2"/>
<path d="M704.137 573.332C704.137 745.092 92.9999 980 226 518C315.818 206 -26 174 34 -86C86.2623 -312.47 229.376 -57.6684 401.137 -57.6684C572.897 -57.6684 704.137 401.571 704.137 573.332Z" fill="url(#paint2_linear)"/>
<path d="M713.251 573.131C713.251 744.891 102.114 979.799 235.114 517.799C324.933 205.799 -16.8857 173.799 43.1142 -86.201C95.3765 -312.671 238.49 -57.8694 410.251 -57.8694C582.012 -57.8694 713.251 401.37 713.251 573.131Z" fill="url(#paint3_linear)"/>
<path d="M712.251 573.131C712.251 594.307 702.828 616.556 686.451 638.417C670.079 660.27 646.812 681.661 619.263 701.098C564.161 739.975 492.065 770.941 424.145 782.138C356.18 793.343 292.682 784.716 254.436 744.813C216.219 704.94 202.859 633.458 236.075 518.076C258.583 439.891 254.065 379.174 235.509 328.021C216.966 276.902 184.429 235.41 151.062 195.656C147.172 191.022 143.272 186.411 139.38 181.812C76.4506 107.43 15.9571 35.9274 44.0886 -85.9761C57.1449 -142.553 75.7839 -168.592 98.6951 -176.369C110.167 -180.263 122.851 -179.635 136.69 -175.796C150.534 -171.956 165.465 -164.921 181.386 -156.087C195.296 -148.369 209.919 -139.301 225.199 -129.825C227.405 -128.457 229.626 -127.08 231.86 -125.697C249.552 -114.748 268.08 -103.452 287.305 -93.26C325.748 -72.8818 367.07 -56.8694 410.251 -56.8694C452.728 -56.8694 492.879 -28.4658 529.274 17.1938C565.646 62.8236 598.11 125.496 625.232 193.59C679.482 329.793 712.251 487.415 712.251 573.131Z" stroke="white" stroke-opacity="0.6" stroke-width="2"/>
<path d="M797.942 207C797.942 378.76 1077.66 842.64 588.941 826C-204.059 799 586.308 387.739 222 58C-52 -190 518.239 -370 690 -370C861.761 -370 797.942 35.2393 797.942 207Z" fill="url(#paint4_linear)"/>
<path d="M808.22 207C808.22 378.76 1087.94 842.64 599.219 826C-193.781 799 596.585 387.739 232.277 58C-41.7226 -190 528.517 -370 700.277 -370C872.038 -370 808.22 35.2393 808.22 207Z" fill="url(#paint5_linear)"/>
<path d="M807.22 207C807.22 228.586 811.612 254.71 818.31 283.818C824.389 310.236 832.382 339.169 840.751 369.463C841.606 372.557 842.465 375.665 843.326 378.786C861.918 446.184 881.58 519.654 885.992 587.215C890.404 654.781 879.55 716.224 837.336 759.759C795.12 803.296 721.311 829.156 599.253 825C500.164 821.627 425.862 812.252 370.971 797.805C316.071 783.356 280.681 763.858 259.309 740.307C237.966 716.789 230.509 689.127 231.687 658.115C232.867 627.065 242.704 592.699 255.93 555.865C262.336 538.024 269.538 519.606 276.922 500.72C299.986 441.736 324.833 378.194 332.781 313.433C343.292 227.8 324.293 139.935 232.948 57.2586C198.779 26.3318 177.838 -3.47479 167.615 -31.9319C157.398 -60.3705 157.867 -87.5126 166.601 -113.178C184.094 -164.575 234.786 -210.168 299.622 -248.137C364.418 -286.082 443.154 -316.303 516.432 -337.038C589.722 -357.776 657.467 -369 700.277 -369C721.534 -369 739.106 -362.737 753.616 -351.462C768.142 -340.176 779.651 -323.828 788.692 -303.59C806.783 -263.092 814.903 -207.225 817.66 -145.865C820.415 -84.5279 817.808 -17.8123 814.509 44.3291C813.747 58.6793 812.948 72.7874 812.17 86.5294C809.58 132.27 807.22 173.953 807.22 207Z" stroke="white" stroke-opacity="0.6" stroke-width="2"/>
<path d="M542 633.32C822.153 544.766 421.815 1030.32 128 1030.32C-165.816 1030.32 -17.9999 1184.14 -17.9999 890.32C-17.9999 596.505 -582 707.32 -104 505.32C210.826 372.277 194 743.32 542 633.32Z" fill="url(#paint6_linear)"/>
<path d="M535.231 643.522C815.384 554.968 415.047 1040.52 121.231 1040.52C-172.584 1040.52 -24.7685 1194.34 -24.7685 900.522C-24.7685 606.707 -588.769 717.523 -110.769 515.522C204.057 382.479 187.231 753.522 535.231 643.522Z" fill="url(#paint7_linear)"/>
<path d="M535.533 644.476C570.518 633.417 594.649 631.406 609.628 636.11C617.078 638.45 622.229 642.438 625.373 647.783C628.527 653.146 629.725 659.981 629.055 668.113C627.711 684.407 618.892 705.608 603.974 729.694C589.073 753.753 568.152 780.59 542.735 808.137C491.899 863.23 423.141 921.094 348.759 965.178C274.361 1009.27 194.432 1039.52 121.231 1039.52C47.6945 1039.52 1.72308 1049.15 -25.8716 1059.02C-39.0609 1063.75 -48.0574 1068.53 -53.86 1072.35C-50.5181 1066.83 -46.416 1058.54 -42.3284 1046.68C-33.0164 1019.65 -23.7685 974.056 -23.7685 900.522C-23.7685 826.679 -59.2337 778.243 -104.824 744.019C-143.475 715.006 -189.467 696.164 -227.29 680.668C-234.025 677.909 -240.501 675.256 -246.63 672.67C-266.97 664.091 -283.391 656.296 -292.956 647.887C-297.724 643.694 -300.69 639.432 -301.654 634.937C-302.611 630.472 -301.627 625.607 -298.143 620.115C-291.121 609.048 -274.154 595.762 -243.825 578.884C-213.548 562.035 -170.119 541.689 -110.379 516.444C-31.8358 483.252 25.9006 481.545 73.7628 495.822C121.505 510.063 159.542 540.232 198.74 571.324L199.17 571.665C238.477 602.842 278.968 634.868 331.441 652.169C383.952 669.483 448.368 672.028 535.533 644.476Z" stroke="white" stroke-opacity="0.6" stroke-width="2"/>
<path d="M-12.5 465.5C161 434 238.5 640.82 400.5 640.82" stroke="white" stroke-opacity="0.6" stroke-width="2"/>
<path d="M90.392 621.588L80.184 663H66.96L63.016 644.962C62.9387 644.614 62.8227 644.034 62.668 643.222C62.5133 642.41 62.32 641.482 62.088 640.438C61.8947 639.394 61.7207 638.369 61.566 637.364C61.4113 636.359 61.2953 635.508 61.218 634.812C61.1407 635.508 61.0053 636.359 60.812 637.364C60.6573 638.369 60.4833 639.394 60.29 640.438C60.0967 641.482 59.9033 642.41 59.71 643.222C59.5553 644.034 59.4393 644.614 59.362 644.962L55.36 663H42.136L31.87 621.588H42.658L47.182 642.352C47.298 642.855 47.4527 643.589 47.646 644.556C47.8393 645.484 48.0327 646.489 48.226 647.572C48.458 648.655 48.6707 649.718 48.864 650.762C49.0573 651.767 49.1927 652.618 49.27 653.314C49.4247 652.154 49.618 650.82 49.85 649.312C50.1207 647.804 50.4107 646.296 50.72 644.788C51.0293 643.241 51.3193 641.811 51.59 640.496C51.8993 639.181 52.1507 638.099 52.344 637.248L55.998 621.588H66.38L69.918 637.248C70.1113 638.06 70.3433 639.143 70.614 640.496C70.9233 641.811 71.2327 643.241 71.542 644.788C71.8513 646.335 72.1413 647.862 72.412 649.37C72.6827 650.878 72.876 652.193 72.992 653.314C73.108 652.347 73.3013 651.149 73.572 649.718C73.8427 648.287 74.1133 646.895 74.384 645.542C74.6547 644.15 74.8673 643.106 75.022 642.41L79.604 621.588H90.392ZM108.403 630.346C113.081 630.346 116.774 631.564 119.481 634C122.187 636.436 123.541 640.109 123.541 645.02V649.95H103.763C103.84 651.613 104.459 652.985 105.619 654.068C106.817 655.151 108.538 655.692 110.781 655.692C112.791 655.692 114.628 655.499 116.291 655.112C117.953 654.725 119.674 654.107 121.453 653.256V661.202C119.906 662.014 118.205 662.613 116.349 663C114.531 663.387 112.231 663.58 109.447 663.58C106.199 663.58 103.299 663.019 100.747 661.898C98.2335 660.738 96.2421 658.959 94.7728 656.562C93.3035 654.126 92.5688 650.994 92.5688 647.166C92.5688 643.338 93.2261 640.187 94.5408 637.712C95.8941 635.199 97.7501 633.343 100.109 632.144C102.506 630.945 105.271 630.346 108.403 630.346ZM108.809 637.886C107.494 637.886 106.392 638.292 105.503 639.104C104.652 639.916 104.149 641.211 103.995 642.99H113.507C113.468 641.559 113.043 640.361 112.231 639.394C111.457 638.389 110.317 637.886 108.809 637.886ZM145.474 630.346C149.534 630.346 152.705 631.351 154.986 633.362C157.268 635.373 158.408 638.234 158.408 641.946V663H150.752L148.606 658.766H148.374C147.446 659.887 146.518 660.815 145.59 661.55C144.662 662.246 143.58 662.749 142.342 663.058C141.105 663.406 139.597 663.58 137.818 663.58C135.034 663.58 132.714 662.729 130.858 661.028C129.002 659.327 128.074 656.717 128.074 653.198C128.074 649.757 129.254 647.205 131.612 645.542C134.01 643.879 137.47 642.951 141.994 642.758L147.33 642.584V642.12C147.33 640.689 146.982 639.684 146.286 639.104C145.59 638.485 144.643 638.176 143.444 638.176C142.168 638.176 140.757 638.408 139.21 638.872C137.664 639.297 136.098 639.858 134.512 640.554L131.322 633.246C133.178 632.279 135.266 631.564 137.586 631.1C139.945 630.597 142.574 630.346 145.474 630.346ZM147.388 648.674L144.836 648.79C142.787 648.867 141.356 649.235 140.544 649.892C139.732 650.511 139.326 651.4 139.326 652.56C139.326 653.643 139.616 654.455 140.196 654.996C140.776 655.499 141.55 655.75 142.516 655.75C143.87 655.75 145.01 655.325 145.938 654.474C146.905 653.623 147.388 652.521 147.388 651.168V648.674ZM181.669 654.822C182.636 654.822 183.544 654.725 184.395 654.532C185.246 654.3 186.116 654.029 187.005 653.72V661.782C185.806 662.285 184.53 662.71 183.177 663.058C181.824 663.406 180.103 663.58 178.015 663.58C175.927 663.58 174.09 663.251 172.505 662.594C170.92 661.937 169.682 660.815 168.793 659.23C167.942 657.606 167.517 655.344 167.517 652.444V639.22H163.631V634.696L168.561 631.216L171.403 624.488H178.653V630.926H186.541V639.22H178.653V651.69C178.653 653.778 179.658 654.822 181.669 654.822ZM203.707 618.92V625.184C203.707 627.581 203.649 629.592 203.533 631.216C203.417 632.801 203.32 634.019 203.243 634.87H203.765C204.809 633.207 206.046 632.047 207.477 631.39C208.946 630.694 210.647 630.346 212.581 630.346C214.669 630.346 216.563 630.752 218.265 631.564C220.005 632.376 221.377 633.652 222.383 635.392C223.427 637.093 223.949 639.336 223.949 642.12V663H212.813V645.484C212.813 641.192 211.537 639.046 208.985 639.046C206.974 639.046 205.582 639.897 204.809 641.598C204.074 643.299 203.707 645.735 203.707 648.906V663H192.629V618.92H203.707ZM245.926 630.346C250.605 630.346 254.298 631.564 257.004 634C259.711 636.436 261.064 640.109 261.064 645.02V649.95H241.286C241.364 651.613 241.982 652.985 243.142 654.068C244.341 655.151 246.062 655.692 248.304 655.692C250.315 655.692 252.152 655.499 253.814 655.112C255.477 654.725 257.198 654.107 258.976 653.256V661.202C257.43 662.014 255.728 662.613 253.872 663C252.055 663.387 249.754 663.58 246.97 663.58C243.722 663.58 240.822 663.019 238.27 661.898C235.757 660.738 233.766 658.959 232.296 656.562C230.827 654.126 230.092 650.994 230.092 647.166C230.092 643.338 230.75 640.187 232.064 637.712C233.418 635.199 235.274 633.343 237.632 632.144C240.03 630.945 242.794 630.346 245.926 630.346ZM246.332 637.886C245.018 637.886 243.916 638.292 243.026 639.104C242.176 639.916 241.673 641.211 241.518 642.99H251.03C250.992 641.559 250.566 640.361 249.754 639.394C248.981 638.389 247.84 637.886 246.332 637.886ZM286.71 630.346C287.328 630.346 287.966 630.404 288.624 630.52C289.281 630.597 289.764 630.655 290.074 630.694L289.088 641.134C288.701 641.057 288.218 640.979 287.638 640.902C287.096 640.825 286.323 640.786 285.318 640.786C284.39 640.786 283.384 640.921 282.302 641.192C281.219 641.463 280.291 642.062 279.518 642.99C278.783 643.879 278.416 645.291 278.416 647.224V663H267.338V630.926H275.574L277.314 636.03H277.836C278.725 634.445 279.962 633.111 281.548 632.028C283.172 630.907 284.892 630.346 286.71 630.346ZM290.639 630.926H302.297L307.749 649.312C307.865 649.699 307.962 650.221 308.039 650.878C308.155 651.535 308.233 652.173 308.271 652.792H308.503C308.581 652.019 308.677 651.361 308.793 650.82C308.948 650.24 309.083 649.757 309.199 649.37L314.767 630.926H326.077L313.375 665.03C312.409 667.621 311.268 669.805 309.953 671.584C308.677 673.363 307.073 674.697 305.139 675.586C303.245 676.475 300.905 676.92 298.121 676.92C297.116 676.92 296.246 676.862 295.511 676.746C294.777 676.669 294.139 676.572 293.597 676.456V667.756C293.984 667.833 294.487 667.911 295.105 667.988C295.724 668.065 296.362 668.104 297.019 668.104C298.837 668.104 300.171 667.563 301.021 666.48C301.911 665.436 302.626 664.218 303.167 662.826L303.283 662.536L290.639 630.926Z" fill="white"/>
<path d="M319 767H335" stroke="white" stroke-width="2" stroke-linecap="round" stroke-linejoin="round"/>
<path d="M329 761L335 767L329 773" stroke="white" stroke-width="2" stroke-linecap="round" stroke-linejoin="round"/>
<path d="M234.202 768.432C234.202 769.592 233.783 770.506 232.945 771.174C232.113 771.842 230.953 772.176 229.465 772.176C228.094 772.176 226.881 771.918 225.826 771.402V768.871C226.693 769.258 227.426 769.53 228.023 769.688C228.627 769.847 229.178 769.926 229.676 769.926C230.273 769.926 230.73 769.812 231.047 769.583C231.369 769.354 231.53 769.015 231.53 768.563C231.53 768.312 231.46 768.089 231.319 767.896C231.179 767.696 230.971 767.506 230.695 767.324C230.426 767.143 229.872 766.853 229.034 766.454C228.249 766.085 227.66 765.73 227.268 765.391C226.875 765.051 226.562 764.655 226.327 764.204C226.093 763.753 225.976 763.226 225.976 762.622C225.976 761.485 226.359 760.592 227.127 759.941C227.9 759.291 228.967 758.966 230.326 758.966C230.994 758.966 231.63 759.045 232.233 759.203C232.843 759.361 233.479 759.584 234.141 759.871L233.262 761.989C232.576 761.708 232.008 761.512 231.557 761.4C231.111 761.289 230.672 761.233 230.238 761.233C229.723 761.233 229.327 761.354 229.052 761.594C228.776 761.834 228.639 762.147 228.639 762.534C228.639 762.774 228.694 762.985 228.806 763.167C228.917 763.343 229.093 763.516 229.333 763.686C229.579 763.85 230.156 764.148 231.064 764.582C232.266 765.156 233.089 765.733 233.534 766.313C233.979 766.888 234.202 767.594 234.202 768.432ZM240.46 770.04C240.929 770.04 241.491 769.938 242.147 769.732V771.728C241.479 772.026 240.659 772.176 239.687 772.176C238.614 772.176 237.832 771.906 237.34 771.367C236.854 770.822 236.61 770.008 236.61 768.924V764.187H235.327V763.053L236.804 762.156L237.577 760.082H239.291V762.174H242.042V764.187H239.291V768.924C239.291 769.305 239.396 769.586 239.607 769.768C239.824 769.949 240.108 770.04 240.46 770.04ZM250.383 772L249.864 770.664H249.794C249.343 771.232 248.877 771.628 248.396 771.851C247.922 772.067 247.301 772.176 246.533 772.176C245.59 772.176 244.846 771.906 244.301 771.367C243.762 770.828 243.492 770.061 243.492 769.064C243.492 768.021 243.855 767.254 244.582 766.762C245.314 766.264 246.416 765.988 247.887 765.936L249.592 765.883V765.452C249.592 764.456 249.082 763.958 248.062 763.958C247.277 763.958 246.354 764.195 245.294 764.67L244.406 762.859C245.537 762.268 246.791 761.972 248.168 761.972C249.486 761.972 250.497 762.259 251.2 762.833C251.903 763.407 252.255 764.28 252.255 765.452V772H250.383ZM249.592 767.447L248.555 767.482C247.775 767.506 247.195 767.646 246.814 767.904C246.434 768.162 246.243 768.555 246.243 769.082C246.243 769.838 246.677 770.216 247.544 770.216C248.165 770.216 248.66 770.037 249.029 769.68C249.404 769.322 249.592 768.848 249.592 768.256V767.447ZM260.508 761.989C260.871 761.989 261.173 762.016 261.413 762.068L261.211 764.582C260.994 764.523 260.73 764.494 260.42 764.494C259.564 764.494 258.896 764.714 258.416 765.153C257.941 765.593 257.704 766.208 257.704 766.999V772H255.023V762.174H257.054L257.449 763.826H257.581C257.886 763.275 258.296 762.833 258.812 762.499C259.333 762.159 259.898 761.989 260.508 761.989ZM267.337 770.04C267.806 770.04 268.368 769.938 269.024 769.732V771.728C268.356 772.026 267.536 772.176 266.563 772.176C265.491 772.176 264.709 771.906 264.217 771.367C263.73 770.822 263.487 770.008 263.487 768.924V764.187H262.204V763.053L263.681 762.156L264.454 760.082H266.168V762.174H268.919V764.187H266.168V768.924C266.168 769.305 266.273 769.586 266.484 769.768C266.701 769.949 266.985 770.04 267.337 770.04ZM287.306 772H283.843L278.253 762.279H278.174C278.285 763.996 278.341 765.221 278.341 765.953V772H275.906V759.15H279.343L284.924 768.774H284.985C284.897 767.104 284.854 765.924 284.854 765.232V759.15H287.306V772ZM292.474 767.069C292.474 768.042 292.632 768.777 292.948 769.275C293.271 769.773 293.792 770.022 294.513 770.022C295.228 770.022 295.74 769.776 296.051 769.284C296.367 768.786 296.525 768.048 296.525 767.069C296.525 766.097 296.367 765.367 296.051 764.881C295.734 764.395 295.216 764.151 294.495 764.151C293.78 764.151 293.265 764.395 292.948 764.881C292.632 765.361 292.474 766.091 292.474 767.069ZM299.268 767.069C299.268 768.669 298.846 769.92 298.002 770.822C297.158 771.725 295.983 772.176 294.478 772.176C293.534 772.176 292.702 771.971 291.981 771.561C291.261 771.145 290.707 770.55 290.32 769.776C289.934 769.003 289.74 768.101 289.74 767.069C289.74 765.464 290.159 764.216 290.997 763.325C291.835 762.435 293.013 761.989 294.53 761.989C295.474 761.989 296.306 762.194 297.026 762.604C297.747 763.015 298.301 763.604 298.688 764.371C299.074 765.139 299.268 766.038 299.268 767.069ZM309.384 772L308.628 768.563L307.626 764.222H307.547L305.754 772H302.871L300.076 762.174H302.748L303.882 766.524C304.011 767.04 304.189 768.115 304.418 769.75H304.488C304.512 769.305 304.614 768.599 304.796 767.632L304.937 766.885L306.149 762.174H309.103L310.254 766.885C310.324 767.207 310.409 767.682 310.509 768.309C310.614 768.93 310.673 769.41 310.685 769.75H310.755C310.819 769.229 310.91 768.637 311.027 767.975C311.145 767.307 311.244 766.823 311.326 766.524L312.504 762.174H315.132L312.302 772H309.384Z" fill="white"/>
</g>
<defs>
<linearGradient id="paint0_linear" x1="187.5" y1="0" x2="187.5" y2="812" gradientUnits="userSpaceOnUse">
<stop stop-color="#396AFC"/>
<stop offset="1" stop-color="#2948FF"/>
</linearGradient>
<linearGradient id="paint1_linear" x1="35" y1="408.5" x2="183.5" y2="793.5" gradientUnits="userSpaceOnUse">
<stop stop-color="#9939C7"/>
<stop offset="1" stop-color="#71A0E6"/>
</linearGradient>
<linearGradient id="paint2_linear" x1="146" y1="-286" x2="308" y2="702" gradientUnits="userSpaceOnUse">
<stop stop-color="#F12711"/>
<stop offset="1" stop-color="#F5AF19"/>
</linearGradient>
<linearGradient id="paint3_linear" x1="155.114" y1="-286.201" x2="317.114" y2="701.799" gradientUnits="userSpaceOnUse">
<stop stop-color="#F12711"/>
<stop offset="1" stop-color="#F5AF19"/>
</linearGradient>
<linearGradient id="paint4_linear" x1="592.814" y1="-356" x2="592.814" y2="858.436" gradientUnits="userSpaceOnUse">
<stop stop-color="#00E0B8"/>
<stop offset="1" stop-color="#06B78C"/>
</linearGradient>
<linearGradient id="paint5_linear" x1="603.091" y1="-356" x2="603.091" y2="858.436" gradientUnits="userSpaceOnUse">
<stop stop-color="#0ADDD0"/>
<stop offset="1" stop-color="#19D1A5"/>
</linearGradient>
<linearGradient id="paint6_linear" x1="188.001" y1="161.321" x2="188.001" y2="976.321" gradientUnits="userSpaceOnUse">
<stop stop-color="#29A4EC"/>
<stop offset="1" stop-color="#363ECF"/>
</linearGradient>
<linearGradient id="paint7_linear" x1="-121" y1="224.32" x2="277" y2="898.32" gradientUnits="userSpaceOnUse">
<stop stop-color="#64A3ED"/>
<stop offset="1" stop-color="#212BD8"/>
</linearGradient>
<clipPath id="clip0">
<rect width="375" height="812" fill="white"/>
</clipPath>
</defs>
</svg>
